<?xml version="1.0" encoding="utf-8"?>
<!-- Generator: Adobe Illustrator 22.0.0, SVG Export Plug-In . SVG Version: 6.00 Build 0)  -->
<svg version="1.1" id="Layer_1" xmlns="http://www.w3.org/2000/svg" xmlns:xlink="http://www.w3.org/1999/xlink" x="0px" y="0px"
	 viewBox="0 0 122.9 115.3" style="enable-background:new 0 0 122.9 115.3;" xml:space="preserve">
<style type="text/css">
	.st0{fill:#3953A5;}
</style>
<g>
	<path class="st0" d="M77,97.9c-3.6,4-7.8,8-12.5,11.9c1.3-0.2,2.6-0.4,3.8-0.6c3.4-0.7,6.7-1.7,9.9-3.1c0.8-0.3,1.6-0.7,2.4-1.1
		c0.6,0.8,1.3,1.4,2,2c0.8,0.6,1.6,1.1,2.4,1.4c-1.6,0.8-3.2,1.6-4.9,2.3c-3.5,1.5-7.2,2.6-10.9,3.4c-3.7,0.8-7.6,1.1-11.6,1.1
		s-7.8-0.4-11.6-1.1c-3.7-0.7-7.3-1.8-10.8-3.3c0,0-0.1,0-0.1-0.1c-3.5-1.5-6.8-3.3-9.8-5.3c-3.1-2-5.9-4.4-8.5-7
		c-2.6-2.6-4.9-5.4-7-8.5c-2.1-3.1-3.8-6.4-5.3-9.8C3,76.6,1.9,73,1.1,69.2C0.4,65.5,0,61.6,0,57.7s0.4-7.8,1.1-11.6
		c0.7-3.7,1.8-7.3,3.3-10.8c0,0,0-0.1,0.1-0.1c1.5-3.5,3.3-6.8,5.3-9.8c2-3.1,4.4-5.9,7-8.5c2.6-2.6,5.4-4.9,8.5-7
		c3.1-2.1,6.4-3.8,9.8-5.3c3.5-1.5,7.2-2.6,10.9-3.4C49.8,0.4,53.7,0,57.7,0c4,0,7.8,0.4,11.6,1.1C72.9,1.9,76.5,3,80,4.5
		c0,0,0.1,0,0.1,0.1C83.6,6,86.9,7.8,90,9.9c3.1,2,5.9,4.4,8.5,7c2.6,2.6,4.9,5.4,7,8.5c2.1,3.1,3.8,6.4,5.3,9.8
		c1.5,3.5,2.6,7.2,3.4,10.9c0.4,2.1,0.7,4.3,0.9,6.5l-5.2-1.4c-0.2-1.4-0.4-2.7-0.6-4.1c-0.7-3.4-1.7-6.7-3.1-9.9
		c-0.9-2-1.8-4-2.9-5.9l0,0H86.4c3,5.1,5.2,10.2,6.5,15.3l-5.7-1.5c-1.5-4.6-3.7-9.2-6.7-13.8H60.2v9.4c-0.4,0.2-0.7,0.5-1.1,0.7
		l0,0c-0.3,0.2-0.5,0.5-0.8,0.7c-0.3,0.3-0.7,0.7-0.9,1.1c-0.4,0.6-0.8,1.3-1.1,2.1c-0.3,0.8-0.4,1.5-0.5,2.3c0,0.6,0,1.3,0.1,2
		c0.1,0.5,0.2,1.1,0.4,1.6l0,0.1c0,0.1,0.1,0.2,0.1,0.3c0.1,0.2,0.1,0.3,0.1,0.3l0,0l3.6,8.2h-0.1V84h10.6L73,89H60.2v17.8
		c5.6-4.6,10.5-9.3,14.5-14L77,97.9L77,97.9z M115.1,98c-0.3,0.3-0.7,0.6-1.2,0.8c-0.4,0.2-0.9,0.3-1.4,0.4c-0.5,0-1,0-1.5-0.2
		c-0.5-0.2-0.9-0.4-1.3-0.7l-11.1-9.4l-3.8,9.3c-0.3,0.8-0.7,1.5-1.1,2.2c-0.4,0.7-0.9,1.2-1.4,1.7c-0.4,0.4-0.9,0.7-1.3,0.9
		s-0.9,0.4-1.4,0.4c-0.6,0.1-1.2,0-1.7-0.1c-0.5-0.2-1.1-0.4-1.6-0.8c-0.4-0.3-0.8-0.7-1.1-1.2c-0.3-0.4-0.6-1-0.9-1.6
		C77,83.4,68.4,65.9,61.9,49.5c-0.1-0.2-0.1-0.4-0.2-0.7s0-0.5,0-0.7c0-0.3,0.1-0.5,0.2-0.8c0.1-0.3,0.2-0.5,0.4-0.7
		c0.1-0.1,0.2-0.2,0.3-0.3c0.1-0.1,0.2-0.2,0.3-0.2c0.2-0.1,0.4-0.3,0.6-0.4l0,0c0.2-0.1,0.4-0.2,0.6-0.2l0.1,0
		c0.2,0,0.4-0.1,0.5-0.1c0.2,0,0.4,0,0.6,0c0.1,0,0.1,0,0.2,0c17.6,4.4,35.4,9.4,53,14c0.6,0.2,1.2,0.4,1.7,0.6
		c0.5,0.3,1,0.6,1.3,0.9c0.5,0.4,0.8,0.9,1.1,1.4c0.3,0.5,0.4,1.1,0.4,1.7v0c0,0.5-0.1,1-0.2,1.5s-0.4,1-0.7,1.4
		c-0.4,0.6-0.8,1.2-1.4,1.7c-0.6,0.5-1.2,1-1.9,1.5c-2.9,1.7-5.8,3.5-8.6,5.2L121,85c0.4,0.3,0.7,0.8,0.9,1.2l0,0.1
		c0.2,0.4,0.3,0.9,0.4,1.4c0,0.5,0,1-0.2,1.5c-0.1,0.5-0.4,0.9-0.7,1.3C119.8,92.6,117,96.2,115.1,98L115.1,98z M112.2,94.3l5.3-6.3
		l-13-11.1l-0.1-0.1c-0.1-0.1-0.1-0.1-0.2-0.2c-0.1-0.1-0.2-0.2-0.2-0.3c-0.3-0.5-0.4-1.2-0.3-1.7s0.5-1.1,1-1.4
		c3.8-2.1,7.6-4.7,11.3-6.9c0.4-0.3,0.8-0.6,1.1-0.8c0.3-0.3,0.6-0.6,0.7-0.8c0.1-0.1,0.1-0.2,0.2-0.3c-0.1-0.1-0.2-0.1-0.3-0.2
		c-0.2-0.1-0.4-0.2-0.7-0.3L67.5,50.8l20.9,47c0.1,0.3,0.2,0.5,0.4,0.7l0,0.1c0.1,0.1,0.1,0.2,0.2,0.2c0.1,0,0.2-0.1,0.3-0.2
		c0.2-0.2,0.5-0.5,0.7-0.8c0.2-0.4,0.5-0.8,0.7-1.3l5-12.3l0.1-0.1c0-0.1,0.1-0.2,0.1-0.2l0-0.1c0.1-0.1,0.1-0.2,0.2-0.2
		c0.4-0.5,1-0.8,1.6-0.8c0.6-0.1,1.2,0.1,1.7,0.5L112.2,94.3L112.2,94.3z M50.9,109.8C42.7,103,36.2,96.1,31.3,89h-16
		c1.5,2.1,3.2,4,5.1,5.8c2.4,2.4,4.9,4.5,7.8,6.4c2.8,1.9,5.8,3.5,9,4.9c0,0,0.1,0,0.1,0.1c3.2,1.3,6.4,2.3,9.8,3
		C48.4,109.4,49.6,109.7,50.9,109.8L50.9,109.8L50.9,109.8z M12.1,84h16c-4.5-7.8-6.9-15.8-7.2-23.8H5.1c0.1,2.8,0.4,5.4,1,8.1
		c0.7,3.4,1.7,6.7,3.1,9.9C10,80.2,11,82.1,12.1,84L12.1,84z M5.1,55.1h15.9c0.6-7.9,3.2-15.8,7.9-23.8H12.1c-1.1,1.9-2,3.8-2.9,5.8
		c0,0,0,0.1-0.1,0.1c-1.3,3.2-2.3,6.4-3,9.8C5.6,49.7,5.2,52.4,5.1,55.1L5.1,55.1z M15.4,26.3h16.8c4.8-6.9,11.1-13.9,19-20.9
		c-1.4,0.2-2.8,0.4-4.2,0.7c-3.4,0.7-6.7,1.7-9.9,3.1c-3.2,1.4-6.2,3-9,4.9s-5.4,4-7.8,6.4C18.6,22.2,16.9,24.2,15.4,26.3L15.4,26.3
		L15.4,26.3z M64.1,5.4c7.9,7,14.3,13.9,19,20.9H100c-1.5-2.1-3.2-4-5.1-5.9c-2.4-2.4-4.9-4.5-7.8-6.4c-2.8-1.9-5.8-3.5-9-4.9
		c0,0-0.1,0-0.1-0.1c-3.2-1.3-6.4-2.3-9.8-3C66.9,5.8,65.5,5.6,64.1,5.4L64.1,5.4L64.1,5.4z M60.2,8.7v17.6h16.7
		C72.5,20.5,67,14.6,60.2,8.7L60.2,8.7z M55.1,106.8V89H37.5C42.1,95,47.9,100.9,55.1,106.8L55.1,106.8z M55.1,84V60.2H26
		c0.3,8,3,15.9,8,23.8H55.1L55.1,84z M55.1,55.1V31.3H34.9c-5.2,8.1-8.1,16-8.8,23.8H55.1L55.1,55.1z M55.1,26.3V8.7
		c-6.8,5.9-12.3,11.8-16.7,17.6H55.1L55.1,26.3z"/>
</g>
</svg>
